<svg width="256" height="256" viewBox="0 0 256 256" fill="none" xmlns="http://www.w3.org/2000/svg">
  <rect width="256" height="256" rx="56" fill="#F8FAFC"/>
  <rect x="14" y="14" width="228" height="228" rx="46" fill="#FFFFFF" stroke="#D8E0EA" stroke-width="12"/>
  <path d="M69 72C69 63.1634 76.1634 56 85 56H145C168.748 56 188 75.2518 188 99C188 122.748 168.748 142 145 142H95V185C95 193.837 87.8366 201 79 201H69V72Z" fill="#F97316"/>
  <path d="M95 83V115H143C151.837 115 159 107.837 159 99C159 90.1634 151.837 83 143 83H95Z" fill="#FFFFFF"/>
  <path d="M141.989 119.5L197.5 56H226L164.866 127.5L226 201H195.69L140.456 135.177L141.989 119.5Z" fill="#2563EB"/>
  <path d="M31 201L92.1338 129.5L31 56H61.3098L116.544 121.823L115.011 137.5L59.5 201H31Z" fill="#162033"/>
</svg>
